<?xml version="1.0"?>
<svg xmlns="http://www.w3.org/2000/svg" height="512px" viewBox="0 0 60 51" width="512px"><g><g id="022---Waste-Removal"><path id="Shape" d="m57.521 26.611-1.341-3.354c-.3013013-.7612578-1.0382899-1.2601241-1.857-1.257h-8.323c-1.1045695 0-2 .8954305-2 2v12h-2v-13.763l9.181-14.5c.5395211-.85231829.3598846-1.97300995-.419-2.614l-4.662-3.841c-.4428563-.36463973-1.0209692-.52156112-1.5874155-.43088379-.5664464.09067733-1.0666852.42022238-1.3735845.90488379l-5.214 8.224c-.3071033.4847635-.3911825 1.0780878-.2308562 1.6290901.1603264.5510023.5496102 1.0065911 1.0688562 1.2509099l1.6.752-4.048 6.388h-27.465c-.97946919-.0014266-1.81585766.70671-1.976 1.673l-.811 4.85-5.48 5.477c-.37527001.3729914-.58527831.8809017-.583 1.41v5.055c.00012287.6687467.33447989 1.29318.891 1.664l2.109 1.406v1.465c0 1.1045695.8954305 2 2 2h3.1c.47319247 2.330324 2.5221184 4.0050126 4.9 4.0050126s4.4268075-1.6746886 4.9-4.0050126h.2c.4731925 2.330324 2.5221184 4.0050126 4.9 4.0050126s4.4268075-1.6746886 4.9-4.0050126h14.2c.4731925 2.330324 2.5221184 4.0050126 4.9 4.0050126s4.4268075-1.6746886 4.9-4.0050126h6.1c1.1045695 0 2-.8954305 2-2v-10c-.0000472-.127363-.0241356-.2535725-.071-.372zm-7.521 1.389h5.923l2 5h-7.923zm-4-4h8.323l.8 2h-6.123c-.5522847 0-1 .4477153-1 1v12.1c-.6598632-.134694-1.3401368-.134694-2 0zm-2 16.026c-.9745847.726676-1.6502403 1.7842549-1.9 2.974h-14.2c-.1542758-.7276558-.4704292-1.4112306-.925-2h11.615c.5285737-.0003759 1.0355056-.2099796 1.41-.583l1.417-1.417c.2718173-.2744785.4583297-.6218015.537-1h2.046zm.823-37.2 4.668 3.844-.062.1-4.344 6.857-5.47-2.576zm-.816 12.5-12.163 19.211c-.1418682.2241343-.3669754.3827194-.6257855.4408579-.2588102.0581385-.5301157.0110664-.7542145-.1308579-.2282699-.1439969-.3868042-.3760071-.438-.641-.0598939-.2534815-.0136568-.5204285.128-.739l12.03-19zm-15.543 17.074c-.8772978 1.4016113-.46247 3.248264.93 4.14 1.3997978.8859554 3.2527507.4696118 4.139-.93l6.467-10.216v11.592.014.014.569l-1.41 1.417h-15.59c-2.3751008.0029983-4.4215673 1.6735832-4.9 4h-.2c-.4784327-2.3264168-2.5248992-3.9970017-4.9-4-.7145583.0023229-1.420111.1596052-2.068.461l3.373-17.461h20.743zm-20.987-4.463c.29995926-.2936486.49617807-.6769597.559-1.092l.814-4.845h3.418l-2.511 13h-7.757v-1.583zm-3.368 11.934-2.109-1.406v-1.465h7.371l-.971 5.054c-.13144436.3044849-.23194957.6214113-.3.946h-3.1v-1.465c-.00012287-.6687467-.33447989-1.29318-.891-1.664zm8.891 7.129c-1.6568542 0-3-1.3431458-3-3s1.3431458-3 3-3 3 1.3431458 3 3-1.3431458 3-3 3zm10 0c-1.6568542 0-3-1.3431458-3-3s1.3431458-3 3-3 3 1.3431458 3 3-1.3431458 3-3 3zm24 0c-1.2133867 0-2.3072956-.7309265-2.7716386-1.8519497s-.2076757-2.4113767.6503183-3.2693706c.8579939-.857994 2.1483474-1.1146613 3.2693706-.6503183s1.8519497 1.5582519 1.8519497 2.7716386c0 1.6568542-1.3431458 3-3 3zm4.9-4c-.2497597-1.1897451-.9254153-2.247324-1.9-2.974v-5.026h8v8z" data-original="#000000" class="active-path" fill="#000000"/><path id="Shape" d="m54 37h-1c-.5522847 0-1 .4477153-1 1s.4477153 1 1 1h1c.5522847 0 1-.4477153 1-1s-.4477153-1-1-1z" data-original="#000000" class="active-path" fill="#000000"/><circle id="Oval" cx="13" cy="44" r="1" data-original="#000000" class="active-path" fill="#000000"/><circle id="Oval" cx="23" cy="44" r="1" data-original="#000000" class="active-path" fill="#000000"/><circle id="Oval" cx="47" cy="44" r="1" data-original="#000000" class="active-path" fill="#000000"/><path id="Shape" d="m17 26h1c.5522847 0 1-.4477153 1-1s-.4477153-1-1-1h-1c-.5522847 0-1 .4477153-1 1s.4477153 1 1 1z" data-original="#000000" class="active-path" fill="#000000"/><path id="Shape" d="m22 26h7c.5522847 0 1-.4477153 1-1s-.4477153-1-1-1h-7c-.5522847 0-1 .4477153-1 1s.4477153 1 1 1z" data-original="#000000" class="active-path" fill="#000000"/><path id="Shape" d="m13 49h-6c-.55228475 0-1 .4477153-1 1s.44771525 1 1 1h46c.5522847 0 1-.4477153 1-1s-.4477153-1-1-1z" data-original="#000000" class="active-path" fill="#000000"/><path id="Shape" d="m3 49h-2c-.55228475 0-1 .4477153-1 1s.44771525 1 1 1h2c.55228475 0 1-.4477153 1-1s-.44771525-1-1-1z" data-original="#000000" class="active-path" fill="#000000"/><path id="Shape" d="m59 49h-2c-.5522847 0-1 .4477153-1 1s.4477153 1 1 1h2c.5522847 0 1-.4477153 1-1s-.4477153-1-1-1z" data-original="#000000" class="active-path" fill="#000000"/></g></g> </svg>
