<?xml version="1.0"?>
<svg xmlns="http://www.w3.org/2000/svg" viewBox="0 0 64 64" width="512px" height="512px"><g><g id="Map-3" data-name="Map"><path d="M12,28a1,1,0,0,0,.781-.375C13.117,27.205,21,17.278,21,11A9,9,0,0,0,3,11c0,6.278,7.883,16.2,8.219,16.625A1,1,0,0,0,12,28ZM12,4a7.008,7.008,0,0,1,7,7c0,4.507-5.027,11.7-7,14.354C10.026,22.7,5,15.512,5,11A7.008,7.008,0,0,1,12,4Z" data-original="#000000" class="active-path" fill="#000000"/><path d="M17,11a5,5,0,1,0-5,5A5.006,5.006,0,0,0,17,11ZM9,11a3,3,0,1,1,3,3A3,3,0,0,1,9,11Z" data-original="#000000" class="active-path" fill="#000000"/><path d="M33,50H32V45a3,3,0,0,0-3-3H3a1,1,0,0,0-1,1V59a1,1,0,0,0,1,1H6.184a2.982,2.982,0,0,0,5.632,0H26.184a2.982,2.982,0,0,0,5.632,0H35a1,1,0,0,0,1-1V53A3,3,0,0,0,33,50Zm-3-5v5H24V44h5A1,1,0,0,1,30,45ZM4,44H22V58H11.816a2.982,2.982,0,0,0-5.632,0H4ZM9,60a1,1,0,1,1,1-1A1,1,0,0,1,9,60Zm20,0a1,1,0,1,1,1-1A1,1,0,0,1,29,60Zm5-2H31.816a2.982,2.982,0,0,0-5.632,0H24V52h9a1,1,0,0,1,1,1Z" data-original="#000000" class="active-path" fill="#000000"/><path d="M55,2H39a7.008,7.008,0,0,0-7,7V19a3,3,0,0,1-3,3H19v2H29a5.006,5.006,0,0,0,5-5V9a5.006,5.006,0,0,1,5-5H55a5.006,5.006,0,0,1,5,5V53a5.006,5.006,0,0,1-5,5H40v2H55a7.008,7.008,0,0,0,7-7V9A7.008,7.008,0,0,0,55,2Z" data-original="#000000" class="active-path" fill="#000000"/><path d="M42,15a3,3,0,0,1,3-3h4a3,3,0,0,1,3,3V47a3,3,0,0,1-3,3H40v2h9a5.006,5.006,0,0,0,5-5V15a5.006,5.006,0,0,0-5-5H45a5.006,5.006,0,0,0-5,5v8a7.008,7.008,0,0,1-7,7H19v2H33a9.01,9.01,0,0,0,9-9Z" data-original="#000000" class="active-path" fill="#000000"/></g></g> </svg>
